PathFileType	4	(X/Y/Z)	C:\Users\86182\Documents\cortex\Trimmed_M1_L8.trc
DataRate	CameraRate	NumFrames	NumMarkers	Units	OrigDataRate	OrigDataStartFrame	OrigNumFrames
100.00	100.00	       169	2	mm	100.00	761	       951
Frame#	Time	gripper			box			
		X1	Y1	Z1	X2	Y2	Z2	

761	7.600	198.52457	194.99043	293.03854	199.67084	194.41611	153.83109	
762	7.610	198.52524	194.96516	293.03171	199.66647	194.39807	153.80789	
763	7.620	198.51036	195.00137	293.03787	199.69495	194.40895	153.84074	
764	7.630	198.55734	194.98314	293.03003	199.69038	194.40201	153.83557	
765	7.640	198.53908	194.98256	293.02884	199.66202	194.40439	153.79723	
766	7.650	198.49272	194.96780	293.01651	199.65556	194.39227	153.81850	
767	7.660	198.53922	194.99463	293.02341	199.64354	194.37679	153.83575	
768	7.670	198.52153	194.96841	293.02322	199.64134	194.40044	153.83537	
769	7.680	198.55896	194.98933	293.03152	199.64772	194.39941	153.81970	
770	7.690	198.54179	194.95712	293.02740	199.64090	194.36617	153.82140	
771	7.700	198.51895	194.97794	293.03397	199.65338	194.36665	153.84410	
772	7.710	198.53711	194.97913	293.03528	199.63419	194.38643	153.81924	
773	7.720	198.49718	194.97153	293.01132	199.61346	194.38019	153.81178	
774	7.730	198.55014	194.99548	293.02753	199.71738	194.38287	153.81235	
775	7.740	198.49030	194.95557	293.02817	199.59976	194.36858	153.83815	
776	7.750	198.49870	194.97031	293.00800	199.66597	194.37828	153.81523	
777	7.760	198.53267	194.99254	293.02512	199.68828	194.38112	153.82169	
778	7.770	198.49461	194.95477	293.01324	199.64642	194.36598	153.82219	
779	7.780	198.50003	194.97327	293.01129	199.63185	194.36703	153.83253	
780	7.790	198.51553	194.98567	293.03922	199.70345	194.39986	153.80392	
781	7.800	198.46124	194.93996	293.01169	199.62914	194.37784	153.84610	
782	7.810	198.54544	195.00110	293.02942	199.68793	194.39214	153.84000	
783	7.820	198.48561	194.95470	293.01868	199.63414	194.36630	153.81836	
784	7.830	198.48933	194.97644	293.02151	199.62866	194.36652	153.81758	
785	7.840	198.54982	194.96001	293.03415	199.63622	194.37379	153.83766	
786	7.850	198.48047	194.96458	293.03311	199.64935	194.37532	153.80960	
787	7.860	198.50119	194.96434	293.02866	199.65070	194.36922	153.82402	
788	7.870	198.58006	195.00729	293.03503	199.66182	194.36888	153.82559	
789	7.880	198.51193	194.95520	293.02130	199.62744	194.36992	153.81857	
790	7.890	198.51236	194.97351	293.01227	199.65800	194.38539	153.81647	
791	7.900	198.53142	195.00102	293.02484	199.64342	194.36980	153.82919	
792	7.910	198.51326	194.98534	293.02921	199.70070	194.38434	153.82890	
793	7.920	198.56143	194.99713	293.03015	199.71901	194.40285	153.80733	
794	7.930	198.46585	194.93224	293.00101	199.59775	194.37770	153.81660	
795	7.940	198.49748	194.98090	293.03885	199.61337	194.37531	153.85089	
796	7.950	198.50940	194.98264	293.00748	199.61525	194.36679	153.81151	
797	7.960	198.58286	195.01839	293.03183	199.62619	194.36641	153.81308	
798	7.970	198.57539	194.99251	293.03632	199.65532	194.39980	153.83333	
799	7.980	198.53705	194.99933	293.02734	199.66273	194.42776	153.79308	
800	7.990	198.50963	194.95963	293.02814	199.65012	194.37469	153.81577	
801	8.000	198.54100	195.01042	293.04495	199.65421	194.39000	153.81041	
802	8.010	198.48941	194.96872	293.00842	199.60063	194.37173	153.80394	
803	8.020	198.54579	194.99719	293.04581	199.65529	194.38658	153.83900	
804	8.030	198.52295	195.01062	293.04236	199.61449	194.38153	153.84091	
805	8.040	198.51257	194.97443	293.03549	199.66171	194.40016	153.84474	
806	8.050	198.51660	195.00145	293.04602	199.68352	194.36853	153.83711	
807	8.060	198.53714	194.97444	293.03696	199.68526	194.40172	153.82642	
808	8.070	198.55148	194.98335	293.02887	199.66548	194.38223	153.82678	
809	8.080	198.55501	194.99492	293.03949	199.69415	194.39865	153.83913	
810	8.090	198.48969	194.96106	293.03513	199.60809	194.38734	153.81747	
811	8.100	198.58194	195.00922	293.03751	199.63388	194.39172	153.85786	
812	8.110	198.54727	194.99489	293.04309	199.64447	194.40370	153.83495	
813	8.120	198.55922	194.99318	293.03745	199.63260	194.39029	153.82845	
814	8.130	198.54083	194.99789	293.04236	199.61993	194.38133	153.84175	
815	8.140	198.52817	194.98740	293.04633	199.67027	194.39830	153.81467	
816	8.150	198.53917	194.99167	293.04086	199.63231	194.37303	153.86230	
817	8.160	198.54420	194.99117	293.03656	199.66322	194.36626	153.84344	
818	8.170	198.52573	194.97984	293.02371	199.64891	194.36609	153.82672	
819	8.180	198.56256	194.99667	293.03549	199.63391	194.37103	153.84866	
820	8.190	198.51115	195.01111	293.04001	199.61226	194.36908	153.86089	
821	8.200	198.58884	194.99576	293.04053	199.64076	194.39618	153.83604	
822	8.210	198.51277	195.00165	293.03165	199.67300	194.37904	153.83714	
823	8.220	198.47342	194.96579	293.03436	199.66060	194.36772	153.81902	
824	8.230	198.51796	194.98096	293.01907	199.61371	194.36794	153.83606	
825	8.240	198.53777	194.99744	293.01779	199.65500	194.36899	153.82254	
826	8.250	198.55289	194.98344	293.03333	199.64226	194.38989	153.82784	
827	8.260	198.56671	194.99255	293.04990	199.62915	194.36813	153.85510	
828	8.270	198.51237	195.00154	293.02448	199.67781	194.37839	153.82736	
829	8.280	198.53061	194.98216	293.03458	199.65231	194.38689	153.84274	
830	8.290	198.52699	194.99081	293.03220	199.66092	194.38995	153.84314	
831	8.300	198.44759	194.95161	293.02567	199.61328	194.37183	153.84760	
832	8.310	198.57217	195.00687	293.03934	199.67850	194.39209	153.83231	
833	8.320	198.49933	194.97537	293.03653	199.63531	194.37460	153.85423	
834	8.330	198.52682	194.98566	293.01843	199.65532	194.37686	153.84801	
835	8.340	198.48457	194.98608	293.04517	199.62482	194.37457	153.84425	
836	8.350	198.51572	194.99313	293.02780	199.62085	194.36740	153.83093	
837	8.360	198.50645	194.96294	293.01587	199.63950	194.38405	153.84380	
838	8.370	198.51974	194.99152	293.03433	199.62759	194.36726	153.83400	
839	8.380	198.51038	194.98587	293.01169	199.61281	194.36670	153.80705	
840	8.390	198.54062	194.99985	293.03415	199.68015	194.40286	153.84454	
841	8.400	198.55171	195.00977	293.03409	199.68851	194.39529	153.83496	
842	8.410	198.46823	194.97299	293.03595	199.61575	194.37592	153.80475	
843	8.420	198.53026	194.98579	293.02594	199.64867	194.41106	153.84836	
844	8.430	198.50609	194.96556	293.02393	199.59976	194.36858	153.83815	
845	8.440	198.50494	194.98508	293.04211	199.70291	194.38615	153.79901	
846	8.450	198.53992	194.98999	293.02353	199.70232	194.38657	153.80730	
847	8.460	198.55579	195.00064	293.02713	199.61848	194.39703	153.81836	
848	8.470	198.54787	195.01176	293.02686	199.63698	194.39711	153.83356	
849	8.480	198.55396	194.99687	293.02521	199.69180	194.40565	153.84119	
850	8.490	198.51419	194.95381	293.02417	199.71825	194.42270	153.79770	
851	8.500	198.55862	195.00070	293.03622	199.69342	194.41499	153.82610	
852	8.510	198.52606	194.98517	293.02072	199.62164	194.38100	153.83578	
853	8.520	198.53140	194.97569	293.01913	199.66829	194.40125	153.80519	
854	8.530	198.50697	194.99680	293.02414	199.70302	194.41870	153.83713	
855	8.540	198.52592	194.99504	293.01654	199.63840	194.41043	153.83009	
856	8.550	198.51030	195.00772	293.04346	199.70998	194.43201	153.83452	
857	8.560	198.53755	195.01204	293.02060	199.68071	194.42902	153.82472	
858	8.570	198.50142	194.99031	293.01672	199.69589	194.42488	153.82164	
859	8.580	198.57687	195.01695	293.03970	199.66527	194.41473	153.80322	
860	8.590	198.53104	194.99550	293.02805	199.66620	194.42653	153.83180	
861	8.600	198.51978	194.97646	293.01633	199.65639	194.41570	153.81435	
862	8.610	198.55852	195.00012	293.02841	199.68819	194.42236	153.83186	
863	8.620	198.57193	195.02040	293.02658	199.67534	194.40976	153.84198	
864	8.630	198.50652	194.98958	293.03647	199.63083	194.37749	153.84010	
865	8.640	198.49376	194.96359	293.01593	199.60687	194.38731	153.81522	
866	8.650	198.55106	194.97974	293.03146	199.61171	194.36745	153.82336	
867	8.660	198.49156	194.99036	293.02582	199.63710	194.38745	153.84251	
868	8.670	198.53676	195.00476	293.02576	199.61621	194.37154	153.84389	
869	8.680	198.55943	195.00986	293.03052	199.61031	194.37210	153.85130	
870	8.690	198.49835	194.97060	293.01801	199.61815	194.36850	153.85344	
871	8.700	198.46698	194.93248	293.01035	199.64581	194.37953	153.82481	
872	8.710	198.53119	195.00453	293.02390	199.63098	194.37134	153.85237	
873	8.720	198.49092	194.98039	293.03168	199.60710	194.37503	153.83952	
874	8.730	198.52313	194.99570	293.02377	199.60225	194.36867	153.84268	
875	8.740	198.54189	195.00606	293.05197	199.60225	194.36867	153.84268	
876	8.750	198.45529	194.96805	293.01031	199.61617	194.39082	153.82600	
877	8.760	198.50406	195.00137	293.02969	199.64331	194.41685	153.82692	
878	8.770	198.44986	194.98698	293.04373	199.60347	194.36871	153.84494	
879	8.780	198.51599	194.99167	293.02768	199.60281	194.37178	153.83771	
880	8.790	198.55508	195.01230	293.03268	199.63316	194.38373	153.83243	
881	8.800	198.50603	194.97911	293.00946	199.64455	194.36551	153.80946	
882	8.810	198.56610	194.99979	293.01605	199.70805	194.40059	153.82133	
883	8.820	198.53435	194.99747	293.03497	199.67224	194.37857	153.82654	
884	8.830	198.43129	194.93642	293.01932	199.61650	194.38687	153.81461	
885	8.840	198.56030	195.01517	293.02472	199.63934	194.36734	153.84618	
886	8.850	198.47581	194.97791	293.02286	199.66322	194.36626	153.84344	
887	8.860	198.48178	194.96608	293.03189	199.61713	194.36725	153.82417	
888	8.870	198.48055	194.97604	293.01801	199.62485	194.37805	153.84758	
889	8.880	198.49222	194.93527	293.01657	199.62616	194.36562	153.79454	
890	8.890	198.52637	194.98038	293.03012	199.62564	194.36678	153.82126	
891	8.900	198.54553	195.01593	293.02295	199.60722	194.36887	153.85175	
892	8.910	198.42241	194.94339	293.01889	199.62215	194.38057	153.82751	
893	8.920	198.54774	194.99115	293.03555	199.61563	194.36839	153.84888	
894	8.930	198.52722	194.95921	293.02853	199.58813	194.36209	153.82874	
895	8.940	198.44560	194.92654	293.01938	199.62540	194.39442	153.79691	
896	8.950	198.56076	195.01515	293.04126	199.62370	194.38150	153.84859	
897	8.960	198.51747	194.99037	293.04114	199.60225	194.36867	153.84268	
898	8.970	198.48073	194.96585	293.03949	199.62300	194.37140	153.84695	
899	8.980	198.51166	194.99529	293.02911	199.65640	194.36638	153.84036	
900	8.990	198.49695	194.98151	293.02451	199.60597	194.36880	153.84947	
901	9.000	198.51579	195.00325	293.03940	199.60907	194.37207	153.84903	
902	9.010	198.51184	194.98306	293.01733	199.64395	194.38603	153.81857	
903	9.020	198.50102	194.96902	293.01074	199.61212	194.37526	153.84860	
904	9.030	198.55424	195.02051	293.03159	199.63222	194.37137	153.85466	
905	9.040	198.52443	195.00040	293.02673	199.63968	194.36613	153.81914	
906	9.050	198.51950	194.97903	293.01563	199.66566	194.40253	153.82768	
907	9.060	198.58286	195.01839	293.03183	199.62766	194.37077	153.83730	
908	9.070	198.52151	194.96777	293.01563	199.66611	194.36864	153.82414	
909	9.080	198.54742	194.99019	293.02847	199.64682	194.37733	153.85091	
910	9.090	198.53377	194.98985	293.02307	199.59851	194.36852	153.83589	
911	9.100	198.53523	194.98978	293.02771	199.63428	194.37680	153.82816	
912	9.110	198.54324	194.99629	293.02069	199.67218	194.37157	153.81998	
913	9.120	198.50517	194.97760	293.01233	199.60626	194.36763	153.82256	
914	9.130	198.52820	194.99667	293.01813	199.65697	194.36299	153.80472	
915	9.140	198.54410	195.00082	293.01639	199.68320	194.38438	153.81593	
916	9.150	198.50668	194.97339	293.01340	199.66853	194.38544	153.82634	
917	9.160	198.53764	195.00610	293.01431	199.68591	194.36781	153.82275	
918	9.170	198.50810	194.95314	293.01599	199.68446	194.38089	153.81488	
919	9.180	198.54973	194.98561	293.02405	199.63441	194.36841	153.83174	
920	9.190	198.58282	195.01552	293.03293	199.64200	194.39384	153.83936	
921	9.200	198.50891	194.96034	293.01083	199.64825	194.36566	153.81621	
922	9.210	198.51195	194.98241	293.01712	199.66554	194.38574	153.83008	
923	9.220	198.51176	194.96660	293.01672	199.68530	194.36464	153.82776	
924	9.230	198.52434	194.97977	293.01926	199.68338	194.39499	153.82582	
925	9.240	198.58850	195.01488	293.03482	199.66760	194.38631	153.84296	
926	9.250	198.54828	194.99461	293.02448	199.64821	194.39066	153.84749	
927	9.260	198.53372	194.99442	293.02151	199.69023	194.36403	153.81796	
928	9.270	198.49883	194.98964	293.02362	199.63118	194.36533	153.85492	
929	9.280	198.52814	194.99907	293.03409	199.67059	194.36925	153.84154	
